<?xml version="1.0" encoding="UTF-8" standalone="no"?>
<svg width="78px" height="116px" viewBox="0 0 78 116" version="1.1" xmlns="http://www.w3.org/2000/svg" xmlns:xlink="http://www.w3.org/1999/xlink">
    <!-- Generator: Sketch 40 (33762) - http://www.bohemiancoding.com/sketch -->
    <title>ice-cream-1</title>
    <desc>Created with Sketch.</desc>
    <defs></defs>
    <g id="Page-1" stroke="none" stroke-width="1" fill="none" fill-rule="evenodd">
        <path d="M70.4305,100.39 L68.7705,100.39 C68.418,96.885 65.4505,94.14 61.8555,94.14 L49.5055,94.14 C45.673,94.14 42.5555,97.2575 42.5555,101.09 L42.5555,101.19 C42.5555,105.0225 45.673,108.14 49.5055,108.14 L51.1655,108.14 C51.518,111.645 54.483,114.39 58.0805,114.39 L70.4305,114.39 C74.263,114.39 77.3805,111.2725 77.3805,107.44 L77.3805,107.34 C77.3805,103.5075 74.263,100.39 70.4305,100.39 L70.4305,100.39 L70.4305,100.39 L70.4305,100.39 Z M73.3805,107.44 C73.3805,109.0675 72.0555,110.39 70.4305,110.39 L58.0805,110.39 C56.453,110.39 55.1305,109.0675 55.1305,107.44 L55.1305,107.34 C55.1305,107.11 55.1605,106.875 55.223,106.625 C55.373,106.0275 55.238,105.395 54.858,104.9075 C54.4805,104.4225 53.898,104.14 53.283,104.14 L49.5055,104.14 C47.878,104.14 46.5555,102.8175 46.5555,101.19 L46.5555,101.09 C46.5555,99.4625 47.878,98.14 49.5055,98.14 L61.8555,98.14 C63.483,98.14 64.8055,99.4625 64.8055,101.09 L64.8055,101.19 C64.8055,101.42 64.7755,101.655 64.7105,101.905 C64.563,102.5025 64.698,103.135 65.0755,103.6225 C65.4555,104.1075 66.0355,104.39 66.653,104.39 L70.4305,104.39 C72.0555,104.39 73.3805,105.7125 73.3805,107.34 L73.3805,107.44 L73.3805,107.44 L73.3805,107.44 Z M59.968,63.6925 C59.338,63.6925 58.7455,63.99 58.368,64.4925 C57.043,66.2575 52.718,72.2775 52.718,75.5875 C52.718,79.585 55.9705,82.8375 59.968,82.8375 C63.9655,82.8375 67.218,79.585 67.218,75.5875 C67.218,72.2775 62.893,66.2575 61.568,64.4925 C61.1905,63.99 60.5955,63.6925 59.968,63.6925 L59.968,63.6925 L59.968,63.6925 Z M59.968,78.8375 C58.1755,78.8375 56.718,77.38 56.718,75.5875 C56.718,74.56 58.2105,71.8025 59.968,69.16 C61.7255,71.8025 63.218,74.56 63.218,75.5875 C63.218,77.38 61.7605,78.8375 59.968,78.8375 L59.968,78.8375 L59.968,78.8375 Z M64.4675,36.64 C64.4675,29.6225 60.7825,23.47 55.2425,20 C55.245,19.875 55.25,19.75 55.25,19.625 C55.25,8.7875 46.4625,0 35.625,0 C27.5,0 20.5325,4.9375 17.55,11.975 C7.6875,13.0125 0,21.3525 0,31.49 C0,38.4625 3.6375,44.58 9.115,48.06 L32.2325,115.89 L53.19,54.4025 C59.8525,51.265 64.4675,44.4925 64.4675,36.64 L64.4675,36.64 L64.4675,36.64 Z M60.4675,36.64 C60.4675,45.27 53.4725,52.265 44.8425,52.265 C36.2125,52.265 29.2175,45.27 29.2175,36.64 C29.2175,28.01 36.2125,21.015 44.8425,21.015 C53.4725,21.015 60.4675,28.01 60.4675,36.64 L60.4675,36.64 L60.4675,36.64 Z M35.625,4 C43.7275,4 50.3875,10.1675 51.1725,18.065 C49.185,17.3875 47.0575,17.015 44.8425,17.015 C41.335,17.015 38.0475,17.94 35.1975,19.55 C32.06,15.465 27.355,12.6525 21.98,12.01 C24.6525,7.23 29.76,4 35.625,4 L35.625,4 L35.625,4 Z M4,31.49 C4,22.8625 10.995,15.865 19.625,15.865 C24.6225,15.865 29.0725,18.2125 31.9325,21.865 C27.82,25.4625 25.2175,30.745 25.2175,36.64 C25.2175,39.7 25.9175,42.595 27.1675,45.175 C24.93,46.41 22.36,47.115 19.625,47.115 C10.995,47.115 4,40.12 4,31.49 L4,31.49 L4,31.49 Z M14.1125,50.325 C15.8625,50.835 17.71,51.115 19.625,51.115 C23.1325,51.115 26.4225,50.1925 29.2725,48.58 C30.4525,50.115 31.855,51.47 33.4275,52.6 L19.6025,66.4275 L14.1125,50.325 L14.1125,50.325 L14.1125,50.325 Z M32.235,103.49 L25.5675,83.93 L45.795,63.7025 L32.235,103.49 L32.235,103.49 L32.235,103.49 Z M24.13,79.7125 L21.04,70.6475 L37.0375,54.65 C39.4275,55.69 42.0675,56.265 44.8425,56.265 C45.8525,56.265 46.84,56.1825 47.8075,56.0325 L24.13,79.7125 L24.13,79.7125 L24.13,79.7125 Z M41.87,44.70575 C41.87,45.81075 42.765,46.70575 43.87,46.70575 C45.44,46.70575 46.96,46.37575 48.3825,45.72825 C52.2475,43.96325 54.745,40.07825 54.745,35.83075 C54.745,34.72575 53.85,33.83075 52.745,33.83075 C51.64,33.83075 50.745,34.72575 50.745,35.83075 C50.745,38.51825 49.165,40.97325 46.7225,42.08825 C45.825,42.49825 44.865,42.70575 43.87,42.70575 C42.765,42.70575 41.87,43.60075 41.87,44.70575 L41.87,44.70575 L41.87,44.70575 Z" id="ice-cream-1" fill="#F98866"></path>
    </g>
</svg>